<svg height="104" viewBox="0 0 375 104" width="375" xmlns="http://www.w3.org/2000/svg" xmlns:xlink="http://www.w3.org/1999/xlink"><defs><linearGradient id="a" x1="0%" x2="98.238801%" y1="50%" y2="50%"><stop offset="0" stop-color="#25eb7d"/><stop offset="1" stop-color="#00d0cc"/></linearGradient><path id="b" d="m0 0h375v104h-375z"/><mask id="c" fill="#fff"><use fill="#fff" fill-rule="evenodd" xlink:href="#b"/></mask></defs><g fill="none" fill-rule="evenodd"><use fill="url(#a)" xlink:href="#b"/><path d="m369.4863-13c5.809947 9.93223657 7.329679 22.30354629 3.107442 33.9801965-4.222236 11.6766501-13.286682 20.1703458-24.080042 24.0198035-5.809947-9.9322366-7.329679-22.3035463-3.107442-33.9801965 4.222236-11.67665013 13.286682-20.17034583 24.080042-24.0198035zm-237 68c5.809947 9.9322366 7.329679 22.3035463 3.107442 33.9801965-4.222236 11.6766505-13.286682 20.1703455-24.080042 24.0198035-5.809947-9.932237-7.329679-22.3035463-3.107442-33.9801965 4.222236-11.6766501 13.286682-20.1703458 24.080042-24.0198035zm225.235446 17c3.803643 10.8848548 2.954034 23.3427645-3.376219 34.012807-6.330253 10.670042-16.792171 17.278431-28.067273 18.987193-3.803643-10.884855-2.954034-23.342764 3.376219-34.0128069 6.330253-10.6700423 16.792171-17.2784307 28.067273-18.9871931zm-215.721746-56.5518097c10.984384-3.0521811 23.193339-1.3423908 33.259417 5.7247244s15.844196 17.9855527 16.740583 29.378895c-10.984384 3.0521811-23.193339 1.3423908-33.259417-5.7247244s-15.844196-17.9855527-16.740583-29.378895zm83.571344-37.4481903c8.585453 7.5541667 13.83533 18.7219201 13.403961 31.00253493-.431369 12.28061487-6.45206 23.05709127-15.546649 29.99746507-8.585453-7.5541667-13.83533-18.7219201-13.403961-31.00253493s6.45206-23.05709127 15.546649-29.99746507zm-2.226511 89.0740599c11.563648-.6970505 23.341113 3.5291989 31.859095 12.5588491 8.517983 9.0296503 11.961299 20.938482 10.451239 32.293031-11.563648.697051-23.341113-3.529199-31.859095-12.558849-8.517983-9.0296503-11.961299-20.9384822-10.451239-32.2930311zm-223.344833 9.8897466c7.4006717-8.7239156 18.4705761-14.1735142 30.7511909-13.9576195 12.2806148.2158946 23.1549403 6.0512751 30.2488091 15.0300065-7.4006717 8.7239156-18.4705761 14.1735142-30.7511909 13.9576195-12.2806148-.2158946-23.15494031-6.0512751-30.2488091-15.0300065zm274.090975-68.9638065c12.883037 1.46430062 25.03378 8.4375205 32.647369 20.1141706 7.613588 11.6766502 9.067566 25.5684358 5.170681 37.8858294-12.883037-1.4643006-25.03378-8.4375205-32.647369-20.1141706-7.613588-11.6766502-9.067566-25.5684358-5.170681-37.8858294zm-232.090975 4.9018813c9.0949358-2.1856541 19.0580778-.4345 27.11094 5.6446534s12.4793791 15.1908383 12.88906 24.551584c-9.0949358 2.1856541-19.0580778.4345-27.11094-5.6446534s-12.4793791-15.1908383-12.88906-24.551584z" fill="#fff" mask="url(#c)" opacity=".12"/></g></svg>