<svg xmlns="http://www.w3.org/2000/svg" viewBox="0 0 80 80" width="80" height="80" preserveAspectRatio="xMidYMid meet" style="width: 100%; height: 100%; transform: translate3d(0px, 0px, 0px);"><defs><clipPath id="__lottie_element_2"><rect width="80" height="80" x="0" y="0"></rect></clipPath></defs><g clip-path="url(#__lottie_element_2)"><g transform="matrix(1,0,0,1,40,38.49999237060547)" opacity="1" style="display: block;"><g opacity="1" transform="matrix(3,0,0,3,0,0)"><path fill="rgb(21,211,166)" fill-opacity="1" d=" M-0.3720000088214874,1.5010000467300415 C-0.4819999933242798,1.6009999513626099 -0.5419999957084656,1.7309999465942383 -0.5419999957084656,1.88100004196167 C-0.5419999957084656,1.88100004196167 -0.5210000276565552,1.9800000190734863 -0.5210000276565552,1.9800000190734863 C-0.5210000276565552,2.25 -0.3009999990463257,2.4800000190734863 -0.020999999716877937,2.4800000190734863 C-0.020999999716877937,2.4800000190734863 0.0729999989271164,2.4700000286102295 0.0729999989271164,2.4700000286102295 C0.3529999852180481,2.4700000286102295 0.5730000138282776,2.240000009536743 0.5730000138282776,1.9700000286102295 C0.5730000138282776,1.9700000286102295 0.5419999957084656,1.88100004196167 0.5419999957084656,1.88100004196167 C0.5419999957084656,1.7309999465942383 0.4819999933242798,1.6009999513626099 0.3720000088214874,1.5010000467300415 C0.3720000088214874,1.5010000467300415 0.2879999876022339,1.3070000410079956 0.2879999876022339,1.3070000410079956 C0.09799999743700027,1.1369999647140503 -0.05700000002980232,1.2000000476837158 -0.24699999392032623,1.3700000047683716 C-0.24699999392032623,1.3700000047683716 -0.3720000088214874,1.5010000467300415 -0.3720000088214874,1.5010000467300415z M-9.038000106811523,-3.5250000953674316 C-9.038000106811523,-3.5250000953674316 -1.3300000429153442,-10.458000183105469 -1.3300000429153442,-10.458000183105469 C-0.5699999928474426,-11.128000259399414 0.5699999928474426,-11.128000259399414 1.3300000429153442,-10.458000183105469 C1.3300000429153442,-10.458000183105469 8.829999923706055,-3.7330000400543213 8.829999923706055,-3.7330000400543213 C9.260000228881836,-3.3529999256134033 9.5,-2.812999963760376 9.5,-2.2330000400543213 C9.5,-2.2330000400543213 9.5,9.5 9.5,9.5 C9.5,10.600000381469727 9.017000198364258,11 7.916999816894531,11 C7.916999816894531,11 -8.083000183105469,11 -8.083000183105469,11 C-9.182999610900879,11 -9.583000183105469,10.517000198364258 -9.583000183105469,9.416999816894531 C-9.583000183105469,9.416999816894531 -9.583000183105469,-2.4830000400543213 -9.583000183105469,-2.4830000400543213 C-9.583000183105469,-3.062999963760376 -9.468000411987305,-3.1449999809265137 -9.038000106811523,-3.5250000953674316z"></path><g opacity="1" transform="matrix(1,0,0,1,0,0)"><g opacity="1" transform="matrix(1,0,0,1,0,0)"></g></g></g></g><g transform="matrix(1,0,0,1,40,38.49999237060547)" opacity="1" style="display: block;"><g opacity="1" transform="matrix(3,0,0,3,0,0)"><path fill="rgb(51,51,51)" fill-opacity="1" d=" M-8.329999923706055,-2.7799999713897705 C-8.4399995803833,-2.680000066757202 -8.5,-2.549999952316284 -8.5,-2.4000000953674316 C-8.5,-2.4000000953674316 -8.5,9.470000267028809 -8.5,9.470000267028809 C-8.5,9.739999771118164 -8.279999732971191,9.970000267028809 -8,9.970000267028809 C-8,9.970000267028809 8,9.970000267028809 8,9.970000267028809 C8.279999732971191,9.970000267028809 8.5,9.739999771118164 8.5,9.470000267028809 C8.5,9.470000267028809 8.5,-2.4000000953674316 8.5,-2.4000000953674316 C8.5,-2.549999952316284 8.4399995803833,-2.680000066757202 8.329999923706055,-2.7799999713897705 C8.329999923706055,-2.7799999713897705 0.33000001311302185,-9.869999885559082 0.33000001311302185,-9.869999885559082 C0.14000000059604645,-10.039999961853027 -0.14000000059604645,-10.039999961853027 -0.33000001311302185,-9.869999885559082 C-0.33000001311302185,-9.869999885559082 -8.329999923706055,-2.7799999713897705 -8.329999923706055,-2.7799999713897705z M-9.329999923706055,-3.9000000953674316 C-9.329999923706055,-3.9000000953674316 -1.3300000429153442,-11 -1.3300000429153442,-11 C-0.5699999928474426,-11.670000076293945 0.5699999928474426,-11.670000076293945 1.3300000429153442,-11 C1.3300000429153442,-11 9.329999923706055,-3.9000000953674316 9.329999923706055,-3.9000000953674316 C9.760000228881836,-3.5199999809265137 10,-2.9800000190734863 10,-2.4000000953674316 C10,-2.4000000953674316 10,9.5 10,9.5 C10,10.600000381469727 9.100000381469727,11.5 8,11.5 C8,11.5 -8,11.5 -8,11.5 C-9.100000381469727,11.5 -10,10.600000381469727 -10,9.5 C-10,9.5 -10,-2.4000000953674316 -10,-2.4000000953674316 C-10,-2.9800000190734863 -9.760000228881836,-3.5199999809265137 -9.329999923706055,-3.9000000953674316z"></path><g opacity="1" transform="matrix(1,0,0,1,0,0)"><g opacity="1" transform="matrix(1,0,0,1,0,0)"></g></g></g></g><g transform="matrix(1,0,0,1,39.99700164794922,42.5)" opacity="1" style="display: block;"><g opacity="1" transform="matrix(3,0,0,3,0,0)"><path fill="rgb(51,51,51)" fill-opacity="1" d=" M-0.7400000095367432,-0.4000000059604645 C-0.7400000095367432,-0.4000000059604645 -1.940000057220459,-1.8899999856948853 -1.940000057220459,-1.8899999856948853 C-2.180000066757202,-2.190000057220459 -2.119999885559082,-2.630000114440918 -1.7999999523162842,-2.859999895095825 C-1.6699999570846558,-2.950000047683716 -1.5199999809265137,-3 -1.3600000143051147,-3 C-1.3600000143051147,-3 1.4900000095367432,-3 1.4900000095367432,-3 C1.8899999856948853,-3 2.2200000286102295,-2.690000057220459 2.2200000286102295,-2.309999942779541 C2.2200000286102295,-2.1500000953674316 2.1700000762939453,-2.009999990463257 2.069999933242798,-1.8899999856948853 C2.069999933242798,-1.8899999856948853 0.7099999785423279,-0.20999999344348907 0.7099999785423279,-0.20999999344348907 C0.7099999785423279,-0.20999999344348907 0.7099999785423279,-0.14100000262260437 0.7099999785423279,-0.14100000262260437 C1.149999976158142,0.3490000069141388 1.7799999713897705,0.6290000081062317 2.4600000381469727,0.6290000081062317 C2.809999942779541,0.6290000081062317 3.1500000953674316,0.5490000247955322 3.4600000381469727,0.4090000092983246 C3.819999933242798,0.23899999260902405 4.25,0.3889999985694885 4.429999828338623,0.7289999723434448 C4.599999904632568,1.069000005722046 4.449999809265137,1.4889999628067017 4.090000152587891,1.659000039100647 C3.5799999237060547,1.8890000581741333 3.0299999713897705,2.009000062942505 2.4600000381469727,2.009000062942505 C1.559999942779541,2.009000062942505 0.6899999976158142,1.6990000009536743 0.009999999776482582,1.1390000581741333 C-0.7799999713897705,1.718999981880188 -1.6399999856948853,2.009000062942505 -2.5299999713897705,2.009000062942505 C-3.059999942779541,2.009000062942505 -3.5899999141693115,1.8990000486373901 -4.070000171661377,1.6890000104904175 C-4.440000057220459,1.5390000343322754 -4.599999904632568,1.11899995803833 -4.429999828338623,0.7689999938011169 C-4.269999980926514,0.42899999022483826 -3.8399999141693115,0.27900001406669617 -3.4800000190734863,0.42899999022483826 C-3.180000066757202,0.5590000152587891 -2.859999895095825,0.6290000081062317 -2.5299999713897705,0.6290000081062317 C-1.9199999570846558,0.6290000081062317 -0.7400000095367432,-0.050999999046325684 -0.7400000095367432,-0.050999999046325684 C-0.7400000095367432,-0.050999999046325684 -0.7400000095367432,-0.4000000059604645 -0.7400000095367432,-0.4000000059604645z"></path></g></g><g style="display: block;" transform="matrix(1,0,0,1,39.9119987487793,37.25)" opacity="1"><g opacity="1" transform="matrix(1,0,0,1,0,0)"><path fill="rgb(51,51,51)" fill-opacity="0.01" d=" M-5.718999862670898,12.375 C-5.718999862670898,12.375 -3.890000104904175,20.406999588012695 -0.06199999898672104,20.30500030517578 C3.927000045776367,20.198999404907227 6.019999980926514,12.062000274658203 6.019999980926514,12.062000274658203"></path><path stroke-linecap="round" stroke-linejoin="round" fill-opacity="0" stroke="rgb(51,51,51)" stroke-opacity="1" stroke-width="4" d=" M-5.718999862670898,12.375 C-5.718999862670898,12.375 -3.890000104904175,20.406999588012695 -0.06199999898672104,20.30500030517578 C3.927000045776367,20.198999404907227 6.019999980926514,12.062000274658203 6.019999980926514,12.062000274658203"></path></g></g></g></svg>