<svg xmlns="http://www.w3.org/2000/svg" viewBox="0 0 80 80" width="80" height="80" preserveAspectRatio="xMidYMid meet" style="width: 100%; height: 100%; transform: translate3d(0px, 0px, 0px);"><defs><clipPath id="__lottie_element_16"><rect width="80" height="80" x="0" y="0"></rect></clipPath></defs><g clip-path="url(#__lottie_element_16)"><g style="display: none;"><g><path></path><g></g></g></g><g transform="matrix(1,0,0,1,55.75,21.25)" opacity="1" style="display: block;"><g opacity="1" transform="matrix(3,0,0,3,0,0)"><path fill="rgb(51,51,51)" fill-opacity="1" d=" M1.3899999856948853,-3.25 C-1.1699999570846558,-3.25 -3.25,-1.1699999570846558 -3.25,1.3899999856948853 C-3.25,1.3899999856948853 -3.25,3.25 -3.25,3.25 C-3.25,3.25 -1.3899999856948853,3.25 -1.3899999856948853,3.25 C1.1699999570846558,3.25 3.25,1.1699999570846558 3.25,-1.3899999856948853 C3.25,-1.3899999856948853 3.25,-3.25 3.25,-3.25 C3.25,-3.25 1.3899999856948853,-3.25 1.3899999856948853,-3.25z M1.3899999856948853,-4.75 C1.3899999856948853,-4.75 3.25,-4.75 3.25,-4.75 C4.079999923706055,-4.75 4.75,-4.079999923706055 4.75,-3.25 C4.75,-3.25 4.75,-1.3899999856948853 4.75,-1.3899999856948853 C4.75,2 2,4.75 -1.3899999856948853,4.75 C-1.3899999856948853,4.75 -3.25,4.75 -3.25,4.75 C-4.079999923706055,4.75 -4.75,4.079999923706055 -4.75,3.25 C-4.75,3.25 -4.75,1.3899999856948853 -4.75,1.3899999856948853 C-4.75,-2 -2,-4.75 1.3899999856948853,-4.75z"></path><g opacity="1" transform="matrix(1,0,0,1,0,0)"></g></g></g><g style="display: none;"><g><path></path><g><g></g><g></g></g></g></g><g transform="matrix(1,0,0,1,21.25,21.25)" opacity="1" style="display: block;"><g opacity="1" transform="matrix(3,0,0,3,0,0)"><path fill="rgb(51,51,51)" fill-opacity="1" d=" M-1.39,-3.25 C1.17,-3.25 3.25,-1.17 3.25,1.39 C3.25,1.39 3.25,3.25 3.25,3.25 C3.25,3.25 1.39,3.25 1.39,3.25 C-1.17,3.25 -3.25,1.17 -3.25,-1.39 C-3.25,-1.39 -3.25,-3.25 -3.25,-3.25 C-3.25,-3.25 -1.39,-3.25 -1.39,-3.25z M-1.39,-4.75 C-1.39,-4.75 -3.25,-4.75 -3.25,-4.75 C-4.08,-4.75 -4.75,-4.08 -4.75,-3.25 C-4.75,-3.25 -4.75,-1.39 -4.75,-1.39 C-4.75,2 -2,4.75 1.39,4.75 C1.39,4.75 3.25,4.75 3.25,4.75 C4.08,4.75 4.75,4.08 4.75,3.25 C4.75,3.25 4.75,1.39 4.75,1.39 C4.75,-2 2,-4.75 -1.39,-4.75z"></path><g opacity="1" transform="matrix(1,0,0,1,0,0)"><g opacity="1" transform="matrix(-1,0,0,1,0,0)"></g><g opacity="1" transform="matrix(-1,0,0,1,0,0)"></g></g></g></g><g style="display: none;"><g><path></path><g></g></g></g><g transform="matrix(1,0,0,1,21.25,55.75)" opacity="1" style="display: block;"><g opacity="1" transform="matrix(3,0,0,3,0,0)"><path fill="rgb(51,51,51)" fill-opacity="1" d=" M-1.3930000066757202,3.25 C1.1670000553131104,3.25 3.246999979019165,1.1699999570846558 3.246999979019165,-1.3899999856948853 C3.246999979019165,-1.3899999856948853 3.246999979019165,-3.25 3.246999979019165,-3.25 C3.246999979019165,-3.25 1.3869999647140503,-3.25 1.3869999647140503,-3.25 C-1.1729999780654907,-3.25 -3.253000020980835,-1.1699999570846558 -3.253000020980835,1.3899999856948853 C-3.253000020980835,1.3899999856948853 -3.253000020980835,3.25 -3.253000020980835,3.25 C-3.253000020980835,3.25 -1.3930000066757202,3.25 -1.3930000066757202,3.25z M-1.3899999856948853,4.75 C-1.3899999856948853,4.75 -3.25,4.75 -3.25,4.75 C-4.079999923706055,4.75 -4.75,4.079999923706055 -4.75,3.25 C-4.75,3.25 -4.75,1.3899999856948853 -4.75,1.3899999856948853 C-4.75,-2 -2,-4.75 1.3899999856948853,-4.75 C1.3899999856948853,-4.75 3.25,-4.75 3.25,-4.75 C4.079999923706055,-4.75 4.75,-4.079999923706055 4.75,-3.25 C4.75,-3.25 4.75,-1.3899999856948853 4.75,-1.3899999856948853 C4.75,2 2,4.75 -1.3899999856948853,4.75z"></path><g opacity="1" transform="matrix(1,0,0,1,0,0)"></g></g></g><g transform="matrix(1,0,0,1,55,55)" opacity="1" style="display: block;"><g opacity="1" transform="matrix(3,0,0,3,0,0)"><path fill="rgb(51,51,51)" fill-opacity="1" d=" M0,3 C1.659999966621399,3 3,1.659999966621399 3,0 C3,-1.659999966621399 1.659999966621399,-3 0,-3 C-1.659999966621399,-3 -3,-1.659999966621399 -3,0 C-3,1.659999966621399 -1.659999966621399,3 0,3z M0,4.5 C-2.490000009536743,4.5 -4.5,2.490000009536743 -4.5,0 C-4.5,-2.490000009536743 -2.490000009536743,-4.5 0,-4.5 C2.490000009536743,-4.5 4.5,-2.490000009536743 4.5,0 C4.5,2.490000009536743 2.490000009536743,4.5 0,4.5z"></path><g opacity="1" transform="matrix(1,0,0,1,0,0)"></g></g></g><g transform="matrix(1,0,0,1,67,67)" opacity="1" style="display: block;"><g opacity="1" transform="matrix(3,0,0,3,0,0)"><path fill="rgb(51,51,51)" fill-opacity="1" d=" M-1.7799999713897705,-0.7200000286102295 C-2.069999933242798,-1.0099999904632568 -2.069999933242798,-1.4900000095367432 -1.7799999713897705,-1.7799999713897705 C-1.4900000095367432,-2.069999933242798 -1.0099999904632568,-2.069999933242798 -0.7200000286102295,-1.7799999713897705 C-0.7200000286102295,-1.7799999713897705 1.7799999713897705,0.7200000286102295 1.7799999713897705,0.7200000286102295 C2.069999933242798,1.0099999904632568 2.069999933242798,1.4900000095367432 1.7799999713897705,1.7799999713897705 C1.4900000095367432,2.069999933242798 1.0099999904632568,2.069999933242798 0.7200000286102295,1.7799999713897705 C0.7200000286102295,1.7799999713897705 -1.7799999713897705,-0.7200000286102295 -1.7799999713897705,-0.7200000286102295z"></path></g></g><g style="display: none;"><g><path></path><path stroke-linecap="butt" stroke-linejoin="miter" fill-opacity="0" stroke-miterlimit="4"></path></g></g></g></svg>