<svg xmlns="http://www.w3.org/2000/svg" viewBox="0 0 80 80" width="80" height="80" preserveAspectRatio="xMidYMid meet" style="width: 100%; height: 100%; transform: translate3d(0px, 0px, 0px);"><defs><clipPath id="__lottie_element_45"><rect width="80" height="80" x="0" y="0"></rect></clipPath></defs><g clip-path="url(#__lottie_element_45)"><g style="display: none;"><g><path></path><path stroke-linecap="butt" stroke-linejoin="miter" fill-opacity="0" stroke-miterlimit="4"></path></g></g><g transform="matrix(1,0,0,1,38.5,31.75)" opacity="1" style="display: block;"><g opacity="1" transform="matrix(3,0,0,3,0,0)"><path fill="rgb(51,51,51)" fill-opacity="1" d=" M-10.75,-7.75 C-11.15999984741211,-7.75 -11.5,-8.09000015258789 -11.5,-8.5 C-11.5,-8.90999984741211 -11.15999984741211,-9.25 -10.75,-9.25 C-8.130000114440918,-9.25 -6,-7.119999885559082 -6,-4.5 C-6,-4.5 -6,6.5 -6,6.5 C-6,7.190000057220459 -5.440000057220459,7.75 -4.75,7.75 C-4.75,7.75 8.75,7.75 8.75,7.75 C9.4399995803833,7.75 10,7.190000057220459 10,6.5 C10,6.5 10,-3 10,-3 C10,-3.690000057220459 9.4399995803833,-4.25 8.75,-4.25 C8.75,-4.25 -0.5,-4.25 -0.5,-4.25 C-0.9100000262260437,-4.25 -1.25,-4.590000152587891 -1.25,-5 C-1.25,-5.409999847412109 -0.9100000262260437,-5.75 -0.5,-5.75 C-0.5,-5.75 8.75,-5.75 8.75,-5.75 C10.270000457763672,-5.75 11.5,-4.519999980926514 11.5,-3 C11.5,-3 11.5,6.5 11.5,6.5 C11.5,8.020000457763672 10.270000457763672,9.25 8.75,9.25 C8.75,9.25 -4.75,9.25 -4.75,9.25 C-6.269999980926514,9.25 -7.5,8.020000457763672 -7.5,6.5 C-7.5,6.5 -7.5,-4.5 -7.5,-4.5 C-7.5,-6.289999961853027 -8.960000038146973,-7.75 -10.75,-7.75z"></path></g></g><g transform="matrix(1,0,0,1,29.5,64)" opacity="1" style="display: block;"><g opacity="1" transform="matrix(3,0,0,3,0,0)"><path fill="rgb(51,51,51)" fill-opacity="1" d=" M0,1.5 C0.8299999833106995,1.5 1.5,0.8299999833106995 1.5,0 C1.5,-0.8299999833106995 0.8299999833106995,-1.5 0,-1.5 C-0.8299999833106995,-1.5 -1.5,-0.8299999833106995 -1.5,0 C-1.5,0.8299999833106995 -0.8299999833106995,1.5 0,1.5z M0,3 C-1.659999966621399,3 -3,1.659999966621399 -3,0 C-3,-1.659999966621399 -1.659999966621399,-3 0,-3 C1.659999966621399,-3 3,-1.659999966621399 3,0 C3,1.659999966621399 1.659999966621399,3 0,3z"></path><g opacity="1" transform="matrix(1,0,0,1,0,0)"></g></g></g><g transform="matrix(1,0,0,1,59.5,64)" opacity="1" style="display: block;"><g opacity="1" transform="matrix(3,0,0,3,0,0)"><path fill="rgb(51,51,51)" fill-opacity="1" d=" M0,1.5 C0.8299999833106995,1.5 1.5,0.8299999833106995 1.5,0 C1.5,-0.8299999833106995 0.8299999833106995,-1.5 0,-1.5 C-0.8299999833106995,-1.5 -1.5,-0.8299999833106995 -1.5,0 C-1.5,0.8299999833106995 -0.8299999833106995,1.5 0,1.5z M0,3 C-1.659999966621399,3 -3,1.659999966621399 -3,0 C-3,-1.659999966621399 -1.659999966621399,-3 0,-3 C1.659999966621399,-3 3,-1.659999966621399 3,0 C3,1.659999966621399 1.659999966621399,3 0,3z"></path><g opacity="1" transform="matrix(1,0,0,1,0,0)"></g></g></g><g transform="matrix(1,0,0,1,40,38.25)" opacity="1" style="display: block;"></g><g style="display: none;"><g><path></path><path stroke-linecap="butt" stroke-linejoin="miter" fill-opacity="0" stroke-miterlimit="4"></path></g></g><g style="display: none;"><g><path></path><path stroke-linecap="butt" stroke-linejoin="miter" fill-opacity="0" stroke-miterlimit="4"></path></g></g></g></svg>