<svg xmlns="http://www.w3.org/2000/svg" viewBox="0 0 80 80" width="80" height="80" preserveAspectRatio="xMidYMid meet" style="width: 100%; height: 100%; transform: translate3d(0px, 0px, 0px);"><defs><clipPath id="__lottie_element_68"><rect width="80" height="80" x="0" y="0"></rect></clipPath></defs><g clip-path="url(#__lottie_element_68)"><g style="display: none;"><g><path></path><g></g></g></g><g transform="matrix(1,0,0,1,40,38.5)" opacity="1" style="display: block;"><g opacity="1" transform="matrix(3,0,0,3,0,0)"><path fill="rgb(51,51,51)" fill-opacity="1" d=" M-8.5,2.302999973297119 C-8.5,4.8429999351501465 -6.519999980926514,9.963000297546387 0,9.963000297546387 C6.519999980926514,9.963000297546387 8.5,4.833000183105469 8.5,2.302999973297119 C8.5,-0.2370000034570694 8,-4.3470001220703125 6.5,-5.876999855041504 C6.239999771118164,-8.626999855041504 5.340000152587891,-9.967000007629395 4.940000057220459,-9.967000007629395 C4.679999828338623,-9.967000007629395 4.289999961853027,-9.336999893188477 3.9800000190734863,-8.13700008392334 C3.9800000190734863,-8.13700008392334 3.859999895095825,-7.566999912261963 3.75,-7.066999912261963 C2.6600000858306885,-7.447000026702881 1.409999966621399,-7.646999835968018 0,-7.646999835968018 C-1.409999966621399,-7.646999835968018 -2.6600000858306885,-7.447000026702881 -3.75,-7.066999912261963 C-3.859999895095825,-7.566999912261963 -3.9800000190734863,-8.13700008392334 -3.9800000190734863,-8.13700008392334 C-4.289999961853027,-9.336999893188477 -4.679999828338623,-9.967000007629395 -4.940000057220459,-9.967000007629395 C-5.340000152587891,-9.967000007629395 -6.239999771118164,-8.626999855041504 -6.5,-5.876999855041504 C-8,-4.3470001220703125 -8.5,-0.24699999392032623 -8.5,2.302999973297119z M-4.940000057220459,-11.5 C-3.7300000190734863,-11.5 -3.109999895095825,-10.550000190734863 -2.640000104904175,-8.9399995803833 C-1.8200000524520874,-9.100000381469727 -0.9399999976158142,-9.180000305175781 0.009999999776482582,-9.180000305175781 C0.9399999976158142,-9.180000305175781 1.8200000524520874,-9.100000381469727 2.640000104904175,-8.9399995803833 C3.109999895095825,-10.550000190734863 3.7300000190734863,-11.5 4.940000057220459,-11.5 C6.53000020980835,-11.5 7.579999923706055,-9.369999885559082 7.940000057220459,-6.519999980926514 C9.34000015258789,-4.659999847412109 10,-1.159999966621399 10,2.299999952316284 C10,4.159999847412109 9.25,6.360000133514404 7.849999904632568,8.069999694824219 C6.059999942779541,10.25 3.4100000858306885,11.5 0,11.5 C-3.4100000858306885,11.5 -6.059999942779541,10.25 -7.849999904632568,8.069999694824219 C-9.25,6.360000133514404 -10,4.159999847412109 -10,2.299999952316284 C-10,-1.159999966621399 -9.34000015258789,-4.659999847412109 -7.940000057220459,-6.519999980926514 C-7.579999923706055,-9.369999885559082 -6.53000020980835,-11.5 -4.940000057220459,-11.5z"></path><g opacity="1" transform="matrix(1,0,0,1,0,0)"></g></g></g><g transform="matrix(1,0,0,1,36.715999603271484,18.292999267578125)" opacity="1" style="display: block;"><g opacity="1" transform="matrix(3,0,0,3,0,0)"><path fill="rgb(51,51,51)" fill-opacity="1" d=" M0.7210000157356262,-2.4639999866485596 C1.13100004196167,-2.4639999866485596 1.4709999561309814,-2.124000072479248 1.4709999561309814,-1.694000005722046 C1.4709999561309814,-1.2740000486373901 1.13100004196167,-0.9340000152587891 0.7210000157356262,-0.9340000152587891 C-0.4390000104904175,-0.9340000152587891 -1.0190000534057617,0.35600000619888306 -0.4390000104904175,0.7160000205039978 C0.11100000143051147,1.0460000038146973 0.48100000619888306,1.00600004196167 0.9010000228881836,0.5759999752044678 C1.190999984741211,0.2759999930858612 1.6710000038146973,0.2759999930858612 1.9609999656677246,0.5759999752044678 C2.250999927520752,0.8759999871253967 2.250999927520752,1.3559999465942383 1.9609999656677246,1.656000018119812 C1.0509999990463257,2.5859999656677246 -0.07900000363588333,2.7160000801086426 -1.2089999914169312,2.0260000228881836 C-3.259000062942505,0.765999972820282 -1.809000015258789,-2.4639999866485596 0.7210000157356262,-2.4639999866485596z"></path></g></g><g transform="matrix(1,0,0,1,51.25,40.03300094604492)" opacity="1" style="display: block;"><g opacity="1" transform="matrix(3,0,0,3,0,0)"><path fill="rgb(51,51,51)" fill-opacity="1" d=" M0,-1.277999997138977 C-0.6399999856948853,-1.277999997138977 -1.1699999570846558,-0.7179999947547913 -1.25,0.0020000000949949026 C-1.1699999570846558,0.722000002861023 -0.6399999856948853,1.281999945640564 0,1.281999945640564 C0.6399999856948853,1.281999945640564 1.1699999570846558,0.722000002861023 1.25,0.0020000000949949026 C1.218999981880188,-0.27399998903274536 1.1230000257492065,-0.5260000228881836 0.9789999723434448,-0.7329999804496765 C0.7480000257492065,-1.065000057220459 0.39500001072883606,-1.277999997138977 0,-1.277999997138977"></path></g><g opacity="1" transform="matrix(1,0,0,1,0.7350000143051147,0.08900000154972076)"><path fill="rgb(51,51,51)" fill-opacity="1" d=" M-0.32499998807907104,-2.7790000438690186 C-0.32499998807907104,-2.7790000438690186 -1.0190000534057617,-2.700000047683716 -1.0190000534057617,-2.700000047683716 C-2.571000099182129,-2.700000047683716 -3.8289999961853027,-1.4429999589920044 -3.8289999961853027,0.10899999737739563 C-3.8289999961853027,1.6610000133514404 -2.561000108718872,2.9189999103546143 -1.0089999437332153,2.9189999103546143 C-1.0089999437332153,2.9189999103546143 -0.3149999976158142,2.8399999141693115 -0.3149999976158142,2.8399999141693115 C1.2369999885559082,2.8399999141693115 2.484999895095825,1.5829999446868896 2.484999895095825,0.03099999949336052 C2.484999895095825,-1.5210000276565552 1.2269999980926514,-2.7790000438690186 -0.32499998807907104,-2.7790000438690186z"></path><path stroke-linecap="butt" stroke-linejoin="miter" fill-opacity="0" stroke-miterlimit="4" stroke="rgb(21,211,165)" stroke-opacity="1" stroke-width="0" d=" M-0.32499998807907104,-2.7790000438690186 C-0.32499998807907104,-2.7790000438690186 -1.0190000534057617,-2.700000047683716 -1.0190000534057617,-2.700000047683716 C-2.571000099182129,-2.700000047683716 -3.8289999961853027,-1.4429999589920044 -3.8289999961853027,0.10899999737739563 C-3.8289999961853027,1.6610000133514404 -2.561000108718872,2.9189999103546143 -1.0089999437332153,2.9189999103546143 C-1.0089999437332153,2.9189999103546143 -0.3149999976158142,2.8399999141693115 -0.3149999976158142,2.8399999141693115 C1.2369999885559082,2.8399999141693115 2.484999895095825,1.5829999446868896 2.484999895095825,0.03099999949336052 C2.484999895095825,-1.5210000276565552 1.2269999980926514,-2.7790000438690186 -0.32499998807907104,-2.7790000438690186z"></path></g></g><g transform="matrix(1,0,0,1,29.125,40.03300094604492)" opacity="1" style="display: block;"><g opacity="1" transform="matrix(3,0,0,3,0,0)"><path fill="rgb(51,51,51)" fill-opacity="1" d=" M0,-1.277999997138977 C-0.6399999856948853,-1.277999997138977 -1.1699999570846558,-0.7179999947547913 -1.25,0.0020000000949949026 C-1.1699999570846558,0.722000002861023 -0.6399999856948853,1.281999945640564 0,1.281999945640564 C0.6399999856948853,1.281999945640564 1.1699999570846558,0.722000002861023 1.25,0.0020000000949949026 C1.1699999570846558,-0.7179999947547913 0.6399999856948853,-1.277999997138977 0,-1.277999997138977"></path></g><g opacity="1" transform="matrix(1,0,0,1,0.7350000143051147,0.08900000154972076)"><path fill="rgb(51,51,51)" fill-opacity="1" d=" M-0.32499998807907104,-2.7790000438690186 C-0.32499998807907104,-2.7790000438690186 -1.0190000534057617,-2.700000047683716 -1.0190000534057617,-2.700000047683716 C-2.571000099182129,-2.700000047683716 -3.8289999961853027,-1.4429999589920044 -3.8289999961853027,0.10899999737739563 C-3.8289999961853027,1.6610000133514404 -2.561000108718872,2.9189999103546143 -1.0089999437332153,2.9189999103546143 C-1.0089999437332153,2.9189999103546143 -0.3149999976158142,2.8399999141693115 -0.3149999976158142,2.8399999141693115 C1.2369999885559082,2.8399999141693115 2.484999895095825,1.5829999446868896 2.484999895095825,0.03099999949336052 C2.484999895095825,-1.5210000276565552 1.2269999980926514,-2.7790000438690186 -0.32499998807907104,-2.7790000438690186z"></path><path stroke-linecap="butt" stroke-linejoin="miter" fill-opacity="0" stroke-miterlimit="4" stroke="rgb(21,211,165)" stroke-opacity="1" stroke-width="0" d=" M-0.32499998807907104,-2.7790000438690186 C-0.32499998807907104,-2.7790000438690186 -1.0190000534057617,-2.700000047683716 -1.0190000534057617,-2.700000047683716 C-2.571000099182129,-2.700000047683716 -3.8289999961853027,-1.4429999589920044 -3.8289999961853027,0.10899999737739563 C-3.8289999961853027,1.6610000133514404 -2.561000108718872,2.9189999103546143 -1.0089999437332153,2.9189999103546143 C-1.0089999437332153,2.9189999103546143 -0.3149999976158142,2.8399999141693115 -0.3149999976158142,2.8399999141693115 C1.2369999885559082,2.8399999141693115 2.484999895095825,1.5829999446868896 2.484999895095825,0.03099999949336052 C2.484999895095825,-1.5210000276565552 1.2269999980926514,-2.7790000438690186 -0.32499998807907104,-2.7790000438690186z"></path></g></g></g></svg>