<svg xmlns="http://www.w3.org/2000/svg" xmlns:xlink="http://www.w3.org/1999/xlink" width="120" height="420" viewBox="0 0 120 420">
	<!--默认空/商品空-->
	<svg width="80" height="80" viewBox="0 0 80 80">
		<path fill="#ccc" d="M66.318 38.761c0-3.831-3.415-5.689-6.16-7.182-.41-.223-.807-.439-1.177-.653.461-.989 1.003-2.699.67-4.861l.462.187 1.853.846-.474-1.981c-.373-1.557-1.357-2.85-2.505-3.882l.644.041 1.844.167-.88-1.629c-3.936-7.289-13.019-8.365-16.754-8.489-.427-1.717-.873-3.022-1.417-4.162-.546-1.144-1.371-1.283-1.807-1.271-1.622.06-3.006 2.467-3.949 4.715h-3.244c-.425 0-.852.013-1.292.039-.576-3.712-1.55-6.593-2.9-8.573-.614-.899-1.55-1.257-2.568-.984-3.235.869-7.416 8.716-8.037 14.95-4.039 3.322-11.734 10.192-9.557 29.786.65 5.851.652 11.117.004 15.649l-.01.141c0 .794.416 1.133.664 1.265.404.215.798.159 1.152.009-.154.531-.394 1.073-.654 1.66-.496 1.119-1.058 2.387-1.161 3.957-.031.479-.09 1.372.742 1.629.121.037.232.051.336.05.098 1.702.028 3.584-.03 5.147-.03.806-.058 1.568-.058 2.181 0 .549.445.994.994.994s.994-.445.994-.994c0-.576.026-1.286.057-2.108.072-1.945.161-4.366-.062-6.445-.037-.341-.128-1.195-.798-1.491.195-.748.502-1.44.802-2.117.515-1.163 1.048-2.364.994-3.776-.028-.745-.439-1.063-.682-1.185-.401-.204-.79-.144-1.142.006.492-4.378.436-9.346-.169-14.792-1.861-16.751 3.305-23.498 9.164-28.295l.33-.271.031-.426c.445-5.983 4.562-13.053 6.613-13.604.162-.043.248-.054.41.184 1.267 1.857 2.203 4.847 2.706 8.647l.126.951.955-.093c.719-.07 1.388-.104 2.047-.104h4.593l.247-.632c.993-2.545 1.911-3.717 2.329-4.016l.038.073c.556 1.165 1.005 2.556 1.455 4.509l.177.769.789.001c2.54.004 10.611.471 14.792 5.913-.581-.008-1.265-.001-2.02.032l-3.455.15 3.007 1.707c1.063.603 2.301 1.458 3.172 2.534l-.059-.015-1.824-.466.645 1.769c1.223 3.354-.396 5.67-.461 5.762l-.621.841.871.577c.634.42 1.35.809 2.108 1.222 2.518 1.37 5.122 2.787 5.122 5.436 0 3.825-1.767 8.033-4.501 10.719-2.872 2.822-13.682 11.654-32.172 6.864-.531-.136-1.073.182-1.211.713-.138.531.181 1.074.713 1.212 19.501 5.052 31.003-4.365 34.063-7.371 3.095-3.041 5.096-7.804 5.096-12.136zM43.462 37.022c3.151 0 5.714-2.563 5.714-5.714 0-3.151-2.563-5.714-5.714-5.714-3.151 0-5.714 2.563-5.714 5.714 0 3.151 2.563 5.714 5.714 5.714zm0-9.937c2.329 0 4.223 1.895 4.223 4.223 0 2.329-1.895 4.223-4.223 4.223-2.329 0-4.223-1.895-4.223-4.223 0-2.329 1.894-4.223 4.223-4.223z"/>
        <circle fill="#ccc" cx="41.226" cy="31.06" r="1.242"/>
        <path fill="#ccc" d="M59.858 43.73l-2.981.497c-1.325 4.306-1.822 6.625-1.491 6.956s2.153-1.656 5.465-5.962l-.28-.42c.489-.622 1.063-1.496 1.275-2.408.033-.014 1.346-.589 1.781-.984.44-.401.653-.882.477-1.076-.176-.193-.675-.024-1.115.377-.092.084-.196.207-.303.349.03-.301-.054-.556-.054-.556s-.683.608-.962.461c-.07-.037-.128-.099-.177-.176.057-.395.086-.789.028-1.033-.154-.645-.64-1.082-1.086-.976-.447.106-.684.715-.53 1.361.077.325.411.817.723 1.227.053.194.1.385.128.533-.149.449-.431 1.176-.855 1.896l-.043-.066zm2.058-1.752l.248-.132-.316.544.068-.412zM79.414 64.511c-1.587-1.709-3.858-2.649-6.179-2.577-1.803.061-3.512.732-4.878 1.873-1.554-3.307-4.361-6.469-8.406-9.449l-1.179 1.6c4.078 3.005 6.785 6.161 8.102 9.428l-.17.21.408.44c.243.704.428 1.413.543 2.127-2.037.624-3.753 2.015-4.758 3.901-1.097 2.06-1.244 4.495-.403 6.683l.31.804.84-.192c2.285-.523 4.225-2.003 5.322-4.063.86-1.614 1.127-3.457.801-5.233h.029c0-.705-.053-1.405-.157-2.099 1.099.543 2.312.845 3.553.845l.278-.005c2.332-.08 4.515-1.17 5.989-2.993l.541-.669-.586-.631zm-12.204 9.851c-.68 1.278-1.793 2.26-3.127 2.787-.308-1.401-.113-2.872.567-4.15.681-1.278 1.793-2.26 3.128-2.786.308 1.4.113 2.871-.568 4.149zm6.192-7.544l-.21.004c-1.368 0-2.698-.473-3.766-1.32 1.06-.967 2.431-1.533 3.877-1.582 1.449-.047 2.854.426 3.976 1.315-1.06.967-2.431 1.534-3.877 1.583zM52.862 73.071c.55-.923-.204-1.987-1.601-3.403-1.703-1.727-1.788-5.175-.253-10.248.159-.525-.138-1.08-.663-1.239-.525-.159-1.08.137-1.239.663-1.786 5.904-1.544 9.901.74 12.219l.299.309-.939-.272 1.87 8.129c.106.46.515.771.968.771l.224-.025c.535-.123.869-.656.746-1.191l-1.17-5.089c.4-.049.776-.22 1.018-.624zM43.672 75.293c-.13-.39-.552-.601-.943-.471-.391.13-.602.552-.471.943l.497 1.491c.104.312.395.509.707.509l.236-.038c.391-.13.602-.552.471-.943l-.497-1.491zM36.009 74.286c-.412 0-.745.334-.745.745v1.491c0 .411.334.745.745.745.412 0 .745-.334.745-.745v-1.491c0-.411-.333-.745-.745-.745z"/>
	</svg>
	<!--地址空-->
	<svg width="80" height="80" viewBox="0 0 80 80" y="90">
		<path fill="#e2e2e2" d="M13.952 31.899c0 7.178 4.785 17.015 13.824 29.243 6.646 9.036 13.557 16.216 14.355 17.011.297.299.615.55.948.763-.84.578-1.8.834-2.887.834-1.329 0-2.659-.532-3.722-1.597-.798-.797-7.708-7.975-14.354-17.012-9.038-12.227-13.824-22.064-13.824-29.242 0-17.545 14.355-31.899 31.9-31.899.954 0 1.896.051 2.829.133-16.23 1.445-29.069 15.176-29.069 31.766z"/><path fill="#979797" d="M40.192 2.058c16.454 0 29.841 13.388 29.841 29.841 0 4.005-1.567 8.996-4.533 14.433-3.354 6.151-7.886 12.646-13.852 19.854l-9.076 10.416c-.619.772-1.31 1.088-2.381 1.088-.822 0-1.627-.352-2.267-.991-.068-.066-7.172-7.285-14.155-16.781-8.905-12.048-13.42-21.476-13.42-28.019.002-16.453 13.389-29.841 29.843-29.841zm0-2.058c-17.545 0-31.9 14.354-31.9 31.899 0 7.178 4.785 17.015 13.824 29.243 6.646 9.036 13.557 16.214 14.354 17.011 1.063 1.064 2.393 1.597 3.722 1.597 1.595 0 2.925-.532 3.987-1.861l9.039-10.367c6.379-7.71 10.898-14.354 14.088-20.204 3.189-5.847 4.785-11.164 4.785-15.418.001-17.546-14.354-31.9-31.899-31.9z"/>
		<path fill="#e2e2e2" d="M40.192 45.532c-7.689 0-13.89-6.201-13.89-13.89s6.201-13.89 13.89-13.89c7.689 0 13.89 6.2 13.89 13.89 0 7.689-6.2 13.89-13.89 13.89z"/>
	</svg>
	<!--购物车空-->
	<svg width="80" height="80" viewBox="0 0 80 80" y="180">
		<path fill="#ccc" d="M71.31 2.671c-4.576 0-8.405 3.471-8.852 8.025l-4.252 43.262c-.199 2.024-1.901 3.567-3.935 3.567h-24.649l.806-.274c-.363-1.069-.66-2.311-.89-3.725l-1.463.238c.228 1.407.525 2.657.886 3.762h-19.629c-2.022 0-3.719-1.526-3.931-3.537l-3.402-32.127-.022-.414c-.001-2.183 1.767-3.955 3.951-3.956l41.614-.029-.001-1.977-41.615.03c-3.275.002-5.928 2.659-5.926 5.934 0 .207.011.414.033.62l3.401 32.125c.319 3.017 2.864 5.306 5.897 5.306h3.339c-2.84 1.712-4.746 4.818-4.746 8.376 0 5.404 4.381 9.785 9.785 9.785s9.785-4.381 9.785-9.785c0-3.558-1.906-6.664-4.746-8.376h18.19c-2.84 1.712-4.746 4.818-4.746 8.376 0 5.404 4.381 9.785 9.785 9.785s9.785-4.381 9.785-9.785c0-3.558-1.906-6.664-4.746-8.376h3.256c3.05 0 5.603-2.314 5.902-5.35l4.252-43.262c.348-3.542 3.326-6.242 6.885-6.242h8.689v-1.976h-8.69zm-45.793 65.206c0 4.312-3.496 7.808-7.808 7.808-4.312 0-7.808-3.496-7.808-7.808s3.496-7.808 7.808-7.808c4.312.001 7.808 3.496 7.808 7.808zm28.267 0c0 4.312-3.496 7.808-7.808 7.808-4.312 0-7.808-3.496-7.808-7.808s3.496-7.808 7.808-7.808c4.312.001 7.808 3.496 7.808 7.808zM45.36 24.885l.117 1.478c1.201-.095 2.333-.083 3.243.017l.018-.166.826-.007c-.002-.246-.008-.434-.024-.624l-.049-.61-.608-.067c-1.005-.11-2.23-.123-3.523-.021zM27.48 45.766l1.482-.014-.004-.792c0-1.07.055-2.093.164-3.069l-1.473-.164-.034.414c-1.079-.326-2.128-.746-3.118-1.291l-.715 1.299c1.182.651 2.433 1.159 3.728 1.523-.018.424-.034.85-.034 1.289l.004.805zM44.702 36.924l1.202.868c.807-1.117 1.488-2.314 2.036-3.573l-1.359-.592c-.506 1.162-1.134 2.267-1.879 3.297zM49.476 28.26l-1.476-.14c-.121 1.266-.373 2.515-.752 3.723l1.414.444c.411-1.308.684-2.658.814-4.027zM43.589 26.596l-.245-1.462c-1.345.225-2.675.568-3.956 1.034l.507 1.393c1.193-.434 2.436-.754 3.694-.965zM29.28 51.606c-.131-1.197-.222-2.494-.273-3.89l-1.482.054c.052 1.431.146 2.763.281 3.997l1.474-.161zM30.498 36.344l-1.369-.569c-.504 1.213-.897 2.523-1.173 3.93l1.455.285c.258-1.31.622-2.525 1.087-3.646zM38.14 28.303l-.647-1.334c-1.255.608-2.422 1.343-3.485 2.208l.936 1.15c.971-.792 2.042-1.465 3.196-2.024zM33.746 43.919c-1.244.237-2.513.339-3.782.305l-.039 1.482c1.376.036 2.75-.074 4.099-.331l-.278-1.456zM43.491 40.539c.392-.369.767-.753 1.124-1.15l-1.102-.992c-.33.367-.676.721-1.038 1.062-.571.537-1.166 1.027-1.788 1.476l.867 1.203c.674-.487 1.319-1.019 1.937-1.599zM39.815 43.252l-.731-1.29c-1.106.627-2.273 1.128-3.483 1.498l.434 1.418c1.313-.402 2.58-.946 3.78-1.626zM14.596 26.928c.029 1.379.215 2.751.557 4.086l1.436-.368c-.314-1.224-.485-2.483-.511-3.748l-1.482.03zM22.037 41.05l.862-1.206c-.732-.523-1.424-1.11-2.069-1.757-.26-.261-.503-.522-.738-.79l-1.116.976c.256.293.521.576.804.861.704.706 1.458 1.345 2.257 1.916zM25.677 26.526c-1.153-.847-2.43-1.445-3.835-1.801l-.365 1.437c1.221.31 2.324.827 3.322 1.559l.878-1.195zM19.773 24.38c-1.278-.111-2.648-.056-4.122.159l.214 1.467c1.365-.199 2.621-.249 3.779-.149l.129-1.477zM26.176 28.938c.798.839 1.523 1.857 2.176 3.064l1.304-.706c-.713-1.318-1.514-2.443-2.406-3.38l-1.074 1.022zM30.847 34.362l.482.27c.631-1.126 1.379-2.135 2.236-3.032l-1.072-1.024c-.756.792-1.412 1.685-2.008 2.635l-1.289.55c.146.342.287.696.424 1.061l1.227-.46zM18.931 35.802c-.719-1.046-1.309-2.167-1.762-3.344l-1.383.533c.495 1.285 1.139 2.509 1.924 3.651l1.221-.84z"></path>
	</svg>
	<!--优惠券空-->
	<svg width="80" height="80" viewBox="0 0 80 80" y="270">
		<path fill="#ccc" d="M0 32.443c1.413-.47 2.41-1.608 2.41-2.938s-.997-2.468-2.41-2.938v-3.399c0-1.75 1.726-3.168 3.855-3.168h72.289c2.129 0 3.855 1.419 3.855 3.168v33.663c0 1.75-1.726 3.168-3.855 3.168h-72.289c-2.129 0-3.855-1.419-3.855-3.168v-4.27c1.413-.47 2.41-1.608 2.41-2.938s-.997-2.468-2.41-2.938v-4.183c1.413-.47 2.41-1.608 2.41-2.938s-.997-2.468-2.41-2.938v-4.183zm1.928.923v2.338c1.482.875 2.41 2.297 2.41 3.861s-.928 2.986-2.41 3.861v2.338c1.482.875 2.41 2.297 2.41 3.861s-.928 2.986-2.41 3.861v3.347c0 .875.863 1.584 1.928 1.584h72.289c1.065 0 1.928-.709 1.928-1.584v-33.663c0-.875-.863-1.584-1.928-1.584h-72.289c-1.065 0-1.928.709-1.928 1.584v2.476c1.482.875 2.41 2.297 2.41 3.861s-.928 2.986-2.41 3.861zm50.401 1.074l2.69-2.211 1.022.84-2.69 2.211 2.931 2.409-1.022.84-2.931-2.409-3.172 2.607-1.022-.84 3.172-2.607-2.931-2.409 1.022-.84 2.931 2.409zm-23.133 0l2.69-2.211 1.022.84-2.69 2.211 2.931 2.409-1.022.84-2.931-2.409-3.172 2.607-1.022-.84 3.172-2.607-2.931-2.409 1.022-.84 2.931 2.409zm4.112 15.267l-1.359-.405c1.298-2.945 4.711-4.946 8.585-4.946s7.287 2.001 8.585 4.946l-1.359.405c-1.093-2.478-3.965-4.163-7.226-4.163s-6.133 1.685-7.226 4.163z"/>
	</svg>
	<!--end-->
	<svg width="120" height="20" viewBox="0 0 120 20" y="360">
		<path fill="#ccc" d="M69.094 17.052c.176-.57.268-1.131.268-1.65 0-.998-.086-1.771-.242-2.361l-.098-.318c.043-.357.064-.719.064-1.074 0-1.541-.555-3.24-1.455-4.352l-.102-.827c-.244-1.992-1.063-3.918-2.547-3.918-1.057 0-1.629.685-2.045 1.874-1.107-.448-2.215-.66-3.331-.522-.552.068-1.081.224-1.578.473-.415-1.159-.981-1.825-2.026-1.825-1.548 0-2.303 1.786-2.632 4.472-.171.169-.317.327-.42.448l-.067.084c-.767 1.035-1.245 2.691-1.245 4.093 0 .336.019.674.058 1.01l-.079.236c-.167.566-.254 1.375-.254 2.508 0 .557.073 1.109.214 1.65h1.6c-.213-.588-.314-1.156-.314-1.65 0-2.287.385-2.449.385-2.449l-.041-.297c-.046-.336-.069-.674-.069-1.006 0-1.055.366-2.412.95-3.199 0 0 .382-.445.711-.688.232-2.414.851-3.71 1.204-3.71.23 0 .572.553.847 1.603l.203.942.407-.254c.732.169 1.048.382 1.048.382-.738.591-.818 1.696-.244 2.413 0 0 .513-.563 1.607-.832l.559 1.029s.589-.934 1.437-1.406c0 0-.892.059-1.337.498l-.316-.686s-.685-.147-1.638.368c-.129-1.004.915-1.669.915-1.669l-1.217-.466c2.341-1.644 5.425.552 5.657.63l.08-.418.021-.1.086-.362c.277-1.094.631-1.671.865-1.671.293 0 .9 1.324 1.057 2.6.156 1.276.154 1.212.156 1.239.004.041.158.219.158.219.744.82 1.232 2.279 1.232 3.539 0 .332-.023.67-.068 1.006l-.041.297s.385.449.385 2.449c0 .461-.115 1.037-.359 1.65h1.591v-.002z"/>
		<path fill="#ccc" d="M63.861 12.052c-.514 0-.936.436-1 1 .064.564.486 1 1 1s.936-.436 1-1c-.064-.565-.486-1-1-1M56.862 12.052c-.513 0-.935.436-1 1 .065.564.487 1 1 1s.935-.436 1-1c-.065-.565-.487-1-1-1"/>
		<path fill="#ccc" d="M75.793 16.245l-.035.107-.014.053.047-.16h.002zm10.883-.205l.211.014.594.066c.564.059 1.047.086 1.508.07.715-.023 1.262-.15 1.578-.383.572-.416 1.051-.389 1.488-.002l.223.209c.389.361.773.385 1.898-.238.643-.357.988-.277 2.389.271 1.23.482 1.939.547 2.803.068l.113-.064h17.656c.277 0 .5.225.5.5 0 .277-.223.5-.5.5h-17.4c-1.139.592-2.104.488-3.537-.074-1.051-.41-1.289-.465-1.539-.326-1.484.822-2.34.771-3.064.096l-.201-.191-.051-.049-.189.111c-.516.375-1.238.543-2.137.572-.514.018-1.037-.012-1.645-.076l-.564-.063h-6.225l.415-.743c.164-.293.391-.555.701-.844l.23-.205c-1.361.123-4.385 1.141-5.236 1.709l-.244.162-.262-.133-.154-.068c-.203-.094-.322-.305-.293-.523l-.01-.021-.096-.209c-1.533.584-2.789.877-3.777.877h-28.449l-.1-.369-.125-.506c-.056-.223-.11-.406-.173-.578-.121-.332-.259-.584-.425-.758-.005.398-.13.771-.36 1.17l-.185.303-.093.145-.091.145-.12.199-.144.25h-.911l-.149-.168c-.091-.102-.173-.211-.254-.33l-.121-.189-.104-.172c-.42-.693-.925-.914-2.775-.627.278.201.53.41.756.625l.9.861h-8.188l-.07-.418c-.113-.68-.47-.857-1.369-.602-.968.277-2.165.609-3.591 1.002l-.065.018h-22.79c-.276 0-.5-.225-.5-.5s.224-.5.5-.5h22.655c1.394-.383 2.566-.709 3.516-.98 1.271-.363 2.183-.021 2.527.98h4.654c-.168-.105-.346-.209-.533-.311l-1.209-.66 1.35-.27c3.277-.654 4.322-.4 5.088.861l.174.285.277-.445c.261-.455.3-.764.095-1.275l-.274-.686h.739c1.017 0 1.65.652 2.032 1.703.076.209.139.422.203.676l.03.121h27.676c.926 0 2.201-.318 3.814-.965l.395-.158.219.365c.137.227.24.416.314.578 1.592-.813 5.102-1.877 6.156-1.547.605.188.738.725.367 1.178-.08.096-.385.375-.578.549h3.979l.147-.013z"/>
	</svg>
	<!--load-->
	<svg width="20" height="20" viewBox="0 0 20 20" y="390">
		<path fill="#15D3A6" d="M16.803 0h1.77c.789 0 1.429.641 1.429 1.43v1.769c0 3.231-2.619 5.85-5.851 5.85h-1.769c-.789 0-1.429-.64-1.429-1.429v-1.77c-.001-3.231 2.619-5.85 5.85-5.85zm0 20h1.77c.789 0 1.429-.641 1.429-1.43v-1.769c0-3.231-2.619-5.85-5.851-5.85h-1.769c-.789 0-1.429.64-1.429 1.429v1.77c-.001 3.231 2.619 5.85 5.85 5.85zm-13.606-20h-1.77c-.788 0-1.428.641-1.428 1.43v1.769c0 3.231 2.619 5.85 5.851 5.85h1.769c.789 0 1.429-.64 1.429-1.429v-1.77c0-3.231-2.62-5.85-5.851-5.85zm0 20h-1.77c-.789 0-1.429-.641-1.429-1.43v-1.769c0-3.231 2.619-5.85 5.851-5.85h1.769c.789 0 1.429.64 1.429 1.429v1.77c.001 3.231-2.619 5.85-5.85 5.85z"/>
	</svg>
</svg>