<svg height="38" viewBox="0 0 48 38" width="48" xmlns="http://www.w3.org/2000/svg"><g fill="#15d3a6" fill-rule="evenodd" opacity=".8" stroke="#fff" stroke-width=".5" transform="matrix(.8660254 .5 -.5 .8660254 14 -8)"><path d="m6.15191348 26.9694252h2.98033094l.1998916.0998556c2.89207668 3.8503055 7.41527838 6.161014 12.32299388 6.161014 4.9077154 0 9.4309171-2.3107085 12.3229938-6.161014l.1998916-.0998556h2.980331l-.2391775.3825365c-3.2665568 5.2244759-8.9871195 8.4652896-15.2640389 8.4652896-6.2769195 0-11.99748213-3.2408137-15.26403891-8.4652896zm-.0791328-18.13605602c3.19396363-5.5214066 9.08573782-8.99437872 15.58234922-8.99437872 6.4966113 0 12.3883855 3.47297212 15.5823492 8.99437872l.2170304.37518069-3.0324013.00000607-.0745207-.10816336c-2.8571291-4.14698851-7.5612996-6.6744456-12.6924576-6.6744456s-9.8353286 2.52745709-12.69245765 6.6744456l-.07452056.10816309h-.13134904l-2.46762054-.00000494h-.43343241zm5.20722462 18.13605602h2.0925439l.1654333.0625652c2.2264151 1.9650746 5.0858485 3.0678696 8.1171474 3.0678696 3.0312988 0 5.8907322-1.102795 8.1171473-3.0678696l.1654334-.0625652h2.0925439l-.4060272.4231c-2.5887131 2.6975641-6.1554092 4.2508131-9.9690974 4.2508131s-7.3803844-1.553249-9.9690974-4.2508131zm-.0780707-18.17441119c2.608203-3.01561612 6.3877203-4.78211051 10.4531953-4.78211051s7.8449922 1.76649439 10.4531952 4.78211051l.3576717.41354166h-1.9720454l-.1764714-.07291858c-2.2854504-2.27757794-5.3705835-3.57925533-8.6623501-3.57925533-3.2917667 0-6.3768998 1.30167739-8.6623501 3.57925533l-.1764715.07291858h-1.9720454z" fill-rule="nonzero" opacity=".3"/><path d="m1.81521739 11.7282609v13.0652174h39.67391301v-13.0652174zm-2.06521739-2.06521742h43.8043478v17.19565222h-43.8043478z" fill-rule="nonzero" opacity=".3"/><path d="m9.95634523 13.7946808h4.15721737v1.7772174h-4.15721737v1.3156521h4.82086957v1.7772174h-3.5703481c.817267 1.2381003 2.0698906 2.360947 3.7611793 3.3667795l.2448882.1456383-1.2547305 1.5938468-.1956323-.1483821c-1.6771526-1.2720776-2.946723-2.6729602-3.80622617-4.2026559v4.8169474h-1.82730435v-4.7774975c-.91771743 1.6606337-2.23363287 3.0563908-3.94486005 4.1852255l-.21682883.1430342-1.02055281-1.6839122.22709002-.1260453c1.62819841-.9037249 2.86283801-2.0079623 3.70788406-3.3129787h-3.57360195v-1.7772174h4.82086956v-1.3156521h-4.06956521v-1.7772174h4.06956521v-1.5777391h1.82730435zm6.27339127 3.6554782h-.25l.25-.25zm8.5899131-2.88v2.38h2.592v1.7646957h-2.592v5.3718261h-1.8147826v-5.3718261h-2.769086c-.1341229 1.1462532-.3782364 2.131357-.7360992 2.9607216-.5166519 1.1121151-1.3586981 1.9629326-2.5184274 2.5471571l-.2013849.1014496-.976415-1.5245778.2263978-.130974c.9637609-.5575476 1.6051847-1.2501279 1.9310102-2.0721085.1937055-.5380707.3404454-1.1653699.4395812-1.881668h-2.6707072v-1.7646957h2.8048696v-2.38h-2.1662609v-1.7646956h10.4172174v1.7646956zm-4.4578759 0-.0013021 2.38h2.6443954v-2.38zm10.5930874-.1368695h1.7159189v.25l-.000108.7210889c-.0573075 1.9484546-.3569558 3.6592405-.9003788 5.1320342.4694665.5057824.877457.9830488 1.2240366 1.4320269l.1231432.1595264-1.1962936 1.4216822-.1887472-.251663c-.2377214-.3169619-.5077098-.6503888-.8099493-1.0001965-.4462019.7407915-.9792126 1.4023395-1.5987437 1.9840943l-.1978709.1858056-1.1427777-1.4371296.1771349-.1572072c.602351-.5345865 1.1101196-1.1715188 1.523707-1.9119139-.4956897-.5079663-.9806807-.9876161-1.4549716-1.4389574l-.1065515-.1013959.0368775-.1423882c.2726399-1.0526932.5072689-2.0879373.7039037-3.1057546h-.7870193v-1.7396522h1.0774072c.0834313-.5184569.1799186-1.2301246.2892717-2.13411l.0293505-.2426305 1.7773433.1742494-.0333856.2559563c-.0870959.6677354-.1741942 1.316575-.2612973 1.9465348zm-.5268183 4.7466838c.2733623-.9098094.4483871-1.9120925.524663-3.0070316h-.2757893c-.1929206 1.0752586-.3861245 1.971565-.5799694 2.6897059.1247784.1188727.2351289.2246328.3310957.3173257zm7.0644763 4.4183597h-2.7556521v.6761739h-1.7396522v-6.0596522h6.2474783v6.0596522h-1.752174zm-2.7556521-1.7271305h2.7556521v-1.9667826h-2.7556521zm.1932935-5.7861473c.7912901-.0660096 1.596334-.1569924 2.4151442-.2729582-.2432522-.50275-.4717905-.9472219-.6855089-1.3332938l-.1279934-.2312139 1.5610096-.7541956.1163392.2003619c.6063811 1.0443231 1.2034763 2.2511282 1.791603 3.6206231l.0938698.2185826-1.6559701.8107354-.390931-.9571069c-1.4609745.1976553-3.1892142.3605395-5.1851726.4887938l-.2223826.0142897-.2956094-1.6345459.236709-.0507233c.4631086-.0992376 1.295978-1.4285464 2.3646631-3.9114313l.0913493-.2122327 1.7356904.5901348-.1189984.2530599c-.5705852 1.2133963-1.1450336 2.2670249-1.7238112 3.1611204z"/></g></svg>