<svg xmlns="http://www.w3.org/2000/svg" viewBox="0 0 80 80" width="80" height="80" preserveAspectRatio="xMidYMid meet" style="width: 100%; height: 100%; transform: translate3d(0px, 0px, 0px);"><defs><clipPath id="__lottie_element_16"><rect width="80" height="80" x="0" y="0"></rect></clipPath></defs><g clip-path="url(#__lottie_element_16)"><g style="display: block;" transform="matrix(1,0,0,1,55.75,21.25)" opacity="1"><g opacity="1" transform="matrix(3,0,0,3,0,0)"><path fill="rgb(21,211,166)" fill-opacity="1" d=" M1.9320000410079956,-3.7290000915527344 C-0.628000020980835,-3.7290000915527344 0.041999999433755875,-3.5409998893737793 0.041999999433755875,-3.568000078201294 C0.041999999433755875,-3.568000078201294 3.5829999446868896,-3.5209999084472656 3.5829999446868896,-3.5209999084472656 C3.5829999446868896,-3.5209999084472656 3.609999895095825,-1.6039999723434448 3.609999895095825,-1.6039999723434448 C3.6459999084472656,-1.25 3.7920000553131104,0.6909999847412109 3.7920000553131104,-1.86899995803833 C3.7920000553131104,-1.86899995803833 3.7920000553131104,-3.7290000915527344 3.7920000553131104,-3.7290000915527344 C3.7920000553131104,-3.7290000915527344 1.9320000410079956,-3.7290000915527344 1.9320000410079956,-3.7290000915527344z M1.3899999856948853,-4.375 C1.3899999856948853,-4.375 3.25,-4.375 3.25,-4.375 C4.079999923706055,-4.375 4.375,-3.996999979019165 4.375,-3.1670000553131104 C4.375,-3.1670000553131104 4.375,-1.3070000410079956 4.375,-1.3070000410079956 C4.375,-1.2710000276565552 4.375,-1.2359999418258667 4.374000072479248,-1.2000000476837158 C4.316999912261963,2.1410000324249268 2.046999931335449,4.208000183105469 -1.3070000410079956,4.208000183105469 C-1.3070000410079956,4.208000183105469 -3.1670000553131104,4.208000183105469 -3.1670000553131104,4.208000183105469 C-3.996999979019165,4.208000183105469 -4.25,3.9130001068115234 -4.25,3.0829999446868896 C-4.25,3.0829999446868896 -4.25,1.2230000495910645 -4.25,1.2230000495910645 C-4.25,-2.1670000553131104 -2,-4.375 1.3899999856948853,-4.375z"></path><g opacity="1" transform="matrix(1,0,0,1,0,0)"></g></g></g><g transform="matrix(1,0,0,1,55.75,21.25)" opacity="1" style="display: block;"><g opacity="1" transform="matrix(3,0,0,3,0,0)"><path fill="rgb(51,51,51)" fill-opacity="1" d=" M1.3899999856948853,-3.25 C-1.1699999570846558,-3.25 -3.25,-1.1699999570846558 -3.25,1.3899999856948853 C-3.25,1.3899999856948853 -3.25,3.25 -3.25,3.25 C-3.25,3.25 -1.3899999856948853,3.25 -1.3899999856948853,3.25 C1.1699999570846558,3.25 3.25,1.1699999570846558 3.25,-1.3899999856948853 C3.25,-1.3899999856948853 3.25,-3.25 3.25,-3.25 C3.25,-3.25 1.3899999856948853,-3.25 1.3899999856948853,-3.25z M1.3899999856948853,-4.75 C1.3899999856948853,-4.75 3.25,-4.75 3.25,-4.75 C4.079999923706055,-4.75 4.75,-4.079999923706055 4.75,-3.25 C4.75,-3.25 4.75,-1.3899999856948853 4.75,-1.3899999856948853 C4.75,2 2,4.75 -1.3899999856948853,4.75 C-1.3899999856948853,4.75 -3.25,4.75 -3.25,4.75 C-4.079999923706055,4.75 -4.75,4.079999923706055 -4.75,3.25 C-4.75,3.25 -4.75,1.3899999856948853 -4.75,1.3899999856948853 C-4.75,-2 -2,-4.75 1.3899999856948853,-4.75z"></path><g opacity="1" transform="matrix(1,0,0,1,0,0)"></g></g></g><g style="display: block;" transform="matrix(1,0,0,1,21.25,21.25)" opacity="1"><g opacity="1" transform="matrix(3,0,0,3,0,0)"><path fill="rgb(21,211,166)" fill-opacity="1" d=" M-1.85,-3.69 C-1.14,-3.69 -1.06,-3.65 -0.88,-3.58 C-0.42,-3.4 -0.1,-3.54 -1.94,-3.55 C-1.94,-3.55 -3.48,-3.48 -3.48,-3.48 C-3.48,-3.48 -3.55,-1.71 -3.55,-1.71 C-3.48,-1.48 -3.71,0.73 -3.71,-1.83 C-3.71,-1.83 -3.71,-3.69 -3.71,-3.69 C-3.71,-3.69 -1.85,-3.69 -1.85,-3.69z M-1.35,-4.17 C-1.35,-4.17 -3.21,-4.17 -3.21,-4.17 C-4.04,-4.17 -4.25,-4.2 -4.25,-3.37 C-4.25,-3.37 -4.25,-1.51 -4.25,-1.51 C-4.25,1.88 -2.33,4.25 1.06,4.25 C1.06,4.25 2.92,4.25 2.92,4.25 C3.75,4.25 4.25,4 4.25,3.17 C4.25,3.17 4.25,1.31 4.25,1.31 C4.25,-2.08 2.04,-4.17 -1.35,-4.17z"></path><g opacity="1" transform="matrix(1,0,0,1,0,0)"><g opacity="1" transform="matrix(-1,0,0,1,0,0)"></g><g opacity="1" transform="matrix(-1,0,0,1,0,0)"></g></g></g></g><g transform="matrix(1,0,0,1,21.25,21.25)" opacity="1" style="display: block;"><g opacity="1" transform="matrix(3,0,0,3,0,0)"><path fill="rgb(51,51,51)" fill-opacity="1" d=" M-1.39,-3.25 C1.17,-3.25 3.25,-1.17 3.25,1.39 C3.25,1.39 3.25,3.25 3.25,3.25 C3.25,3.25 1.39,3.25 1.39,3.25 C-1.17,3.25 -3.25,1.17 -3.25,-1.39 C-3.25,-1.39 -3.25,-3.25 -3.25,-3.25 C-3.25,-3.25 -1.39,-3.25 -1.39,-3.25z M-1.39,-4.75 C-1.39,-4.75 -3.25,-4.75 -3.25,-4.75 C-4.08,-4.75 -4.75,-4.08 -4.75,-3.25 C-4.75,-3.25 -4.75,-1.39 -4.75,-1.39 C-4.75,2 -2,4.75 1.39,4.75 C1.39,4.75 3.25,4.75 3.25,4.75 C4.08,4.75 4.75,4.08 4.75,3.25 C4.75,3.25 4.75,1.39 4.75,1.39 C4.75,-2 2,-4.75 -1.39,-4.75z"></path><g opacity="1" transform="matrix(1,0,0,1,0,0)"><g opacity="1" transform="matrix(-1,0,0,1,0,0)"></g><g opacity="1" transform="matrix(-1,0,0,1,0,0)"></g></g></g></g><g style="display: block;" transform="matrix(1,0,0,1,21.25,55.75)" opacity="1"><g opacity="1" transform="matrix(3,0,0,3,0,0)"><path fill="rgb(21,211,166)" fill-opacity="1" d=" M-1.843999981880188,3.6670000553131104 C0.7160000205039978,3.6670000553131104 -0.125,3.4159998893737793 -1.871000051498413,3.4639999866485596 C-1.871000051498413,3.4639999866485596 -3.496000051498413,3.4790000915527344 -3.496000051498413,3.4790000915527344 C-3.496000051498413,3.4790000915527344 -3.5230000019073486,1.6460000276565552 -3.5230000019073486,1.6460000276565552 C-3.572999954223633,1.062999963760376 -3.5209999084472656,0.0729999989271164 -3.622999906539917,0.6349999904632568 C-3.697999954223633,1.2710000276565552 -3.7039999961853027,1.218000054359436 -3.7039999961853027,1.8070000410079956 C-3.7039999961853027,1.8070000410079956 -3.7039999961853027,3.6670000553131104 -3.7039999961853027,3.6670000553131104 C-3.7039999961853027,3.6670000553131104 -1.843999981880188,3.6670000553131104 -1.843999981880188,3.6670000553131104z M-1.3480000495910645,4.25 C-1.3480000495910645,4.25 -3.2079999446868896,4.25 -3.2079999446868896,4.25 C-4.038000106811523,4.25 -4.458000183105469,4.01800012588501 -4.458000183105469,3.187999963760376 C-4.458000183105469,3.187999963760376 -4.458000183105469,1.3270000219345093 -4.458000183105469,1.3270000219345093 C-4.458000183105469,-2.062999963760376 -2.187999963760376,-4.333000183105469 1.2020000219345093,-4.333000183105469 C1.2020000219345093,-4.333000183105469 3.062000036239624,-4.333000183105469 3.062000036239624,-4.333000183105469 C3.36299991607666,-4.333000183105469 3.7060000896453857,-4.307000160217285 3.940999984741211,-4.15500020980835 C4.353000164031982,-3.888000011444092 4.291999816894531,-3.7790000438690186 4.291999816894531,-3.25 C4.291999816894531,-3.25 4.291999816894531,-1.3899999856948853 4.291999816894531,-1.3899999856948853 C4.291999816894531,2 2.0420000553131104,4.25 -1.3480000495910645,4.25z"></path><g opacity="1" transform="matrix(1,0,0,1,0,0)"></g></g></g><g transform="matrix(1,0,0,1,21.25,55.75)" opacity="1" style="display: block;"><g opacity="1" transform="matrix(3,0,0,3,0,0)"><path fill="rgb(51,51,51)" fill-opacity="1" d=" M-1.3930000066757202,3.25 C1.1670000553131104,3.25 3.246999979019165,1.1699999570846558 3.246999979019165,-1.3899999856948853 C3.246999979019165,-1.3899999856948853 3.246999979019165,-3.25 3.246999979019165,-3.25 C3.246999979019165,-3.25 1.3869999647140503,-3.25 1.3869999647140503,-3.25 C-1.1729999780654907,-3.25 -3.253000020980835,-1.1699999570846558 -3.253000020980835,1.3899999856948853 C-3.253000020980835,1.3899999856948853 -3.253000020980835,3.25 -3.253000020980835,3.25 C-3.253000020980835,3.25 -1.3930000066757202,3.25 -1.3930000066757202,3.25z M-1.3899999856948853,4.75 C-1.3899999856948853,4.75 -3.25,4.75 -3.25,4.75 C-4.079999923706055,4.75 -4.75,4.079999923706055 -4.75,3.25 C-4.75,3.25 -4.75,1.3899999856948853 -4.75,1.3899999856948853 C-4.75,-2 -2,-4.75 1.3899999856948853,-4.75 C1.3899999856948853,-4.75 3.25,-4.75 3.25,-4.75 C4.079999923706055,-4.75 4.75,-4.079999923706055 4.75,-3.25 C4.75,-3.25 4.75,-1.3899999856948853 4.75,-1.3899999856948853 C4.75,2 2,4.75 -1.3899999856948853,4.75z"></path><g opacity="1" transform="matrix(1,0,0,1,0,0)"></g></g></g><g transform="matrix(1,0,0,1,55,55)" opacity="1" style="display: block;"><g opacity="1" transform="matrix(3,0,0,3,0,0)"><path fill="rgb(51,51,51)" fill-opacity="1" d=" M0,3 C1.659999966621399,3 3,1.659999966621399 3,0 C3,-1.659999966621399 1.659999966621399,-3 0,-3 C-1.659999966621399,-3 -3,-1.659999966621399 -3,0 C-3,1.659999966621399 -1.659999966621399,3 0,3z M0,4.5 C-2.490000009536743,4.5 -4.5,2.490000009536743 -4.5,0 C-4.5,-2.490000009536743 -2.490000009536743,-4.5 0,-4.5 C2.490000009536743,-4.5 4.5,-2.490000009536743 4.5,0 C4.5,2.490000009536743 2.490000009536743,4.5 0,4.5z"></path><g opacity="1" transform="matrix(1,0,0,1,0,0)"></g></g></g><g transform="matrix(1,0,0,1,67,67)" opacity="1" style="display: block;"><g opacity="1" transform="matrix(3,0,0,3,0,0)"><path fill="rgb(51,51,51)" fill-opacity="1" d=" M-1.7799999713897705,-0.7200000286102295 C-2.069999933242798,-1.0099999904632568 -2.069999933242798,-1.4900000095367432 -1.7799999713897705,-1.7799999713897705 C-1.4900000095367432,-2.069999933242798 -1.0099999904632568,-2.069999933242798 -0.7200000286102295,-1.7799999713897705 C-0.7200000286102295,-1.7799999713897705 1.7799999713897705,0.7200000286102295 1.7799999713897705,0.7200000286102295 C2.069999933242798,1.0099999904632568 2.069999933242798,1.4900000095367432 1.7799999713897705,1.7799999713897705 C1.4900000095367432,2.069999933242798 1.0099999904632568,2.069999933242798 0.7200000286102295,1.7799999713897705 C0.7200000286102295,1.7799999713897705 -1.7799999713897705,-0.7200000286102295 -1.7799999713897705,-0.7200000286102295z"></path></g></g><g style="display: block;" transform="matrix(0.9950000047683716,0,0,0.9777399897575378,40,40)" opacity="1"><g opacity="1" transform="matrix(1.2899999618530273,0,0,1.2899999618530273,15.0649995803833,15.310999870300293)"><path fill="rgb(51,51,51)" fill-opacity="1" d=" M0,-3.2070000171661377 C-1.7710000276565552,-3.2070000171661377 -3.2070000171661377,-1.7710000276565552 -3.2070000171661377,0 C-3.2070000171661377,1.7710000276565552 -1.7710000276565552,3.2070000171661377 0,3.2070000171661377 C1.7710000276565552,3.2070000171661377 3.2070000171661377,1.7710000276565552 3.2070000171661377,0 C3.2070000171661377,-1.7710000276565552 1.7710000276565552,-3.2070000171661377 0,-3.2070000171661377z"></path><path stroke-linecap="butt" stroke-linejoin="miter" fill-opacity="0" stroke-miterlimit="4" stroke="rgb(21,211,165)" stroke-opacity="1" stroke-width="0" d=" M0,-3.2070000171661377 C-1.7710000276565552,-3.2070000171661377 -3.2070000171661377,-1.7710000276565552 -3.2070000171661377,0 C-3.2070000171661377,1.7710000276565552 -1.7710000276565552,3.2070000171661377 0,3.2070000171661377 C1.7710000276565552,3.2070000171661377 3.2070000171661377,1.7710000276565552 3.2070000171661377,0 C3.2070000171661377,-1.7710000276565552 1.7710000276565552,-3.2070000171661377 0,-3.2070000171661377z"></path></g></g></g></svg>